<svg width="48.012" height="48.013" version="1.1" viewBox="0 0 480.12 480.13" xml:space="preserve" xmlns="http://www.w3.org/2000/svg"><path d="m241.15 386.37-1.6087.2407-1.6437-.86184-1.6437-.86184-.99283-1.3526-.99281-1.3526-.15072-17.822-.15073-17.822.49956-1.6977.49955-1.6977 1.4124-1.3531 1.4124-1.3531 4.1475-.42804 3.2815 1.8101.87595 1.6333.87594 1.6333-.004 36.447-.93407 1.5319c-.51374.84254-1.4608 1.8771-2.1047 2.2989-.64382.42185-1.8945.87533-2.7793 1.0077zm-123.85-2.8775-5.2731.19638-2.6366-.72727c-1.4501-.40001-3.9971-1.3904-5.66-2.2009l-3.0235-1.4736-5.5848-4.6477-4.3657-6.567-1.1837-3.577-1.1837-3.577-.33494-3.0197-.33494-3.0197.58409-3.0955.58408-3.0955 7.4636-11.572 2.2537-6.8773v-11.026l-1.0585-1.9789-1.0585-1.979-4.4945-3.9562-4.8277-1.4337h-84.089l-1.1317-.91629-1.1317-.9163-.12749-42.467-.12749-42.467h3.8168l4.5875 1.5417 4.3143 2.9206 4.3143 2.9206 6.2318 2.5995 7.6699 1.153 3.835-.31427c2.1092-.17287 5.1293-.64018 6.7112-1.0385 1.5819-.3983 4.3352-1.2723 6.1185-1.9423l3.2423-1.2181 7.4075-4.8357 6.3544-6.3544 2.2384-3.4602c1.2311-1.9031 2.8784-4.9641 3.6605-6.8021.78215-1.838 1.7828-4.808 2.2236-6.5998l.80151-3.2579.01225-6.2318.01233-6.2318-1.028-3.835c-.56542-2.1092-1.5936-5.1131-2.2848-6.6753-.6912-1.5622-2.242-4.3635-3.4463-6.225l-2.1896-3.3847-6.3582-6.3582-3.4602-2.2384c-1.9031-1.2311-4.9641-2.8784-6.8021-3.6605-1.8381-.78214-4.7155-1.7407-6.3944-2.13-1.6789-.38935-4.8743-.84795-7.1011-1.0191l-4.0486-.31122-7.1741 1.1807-6.2318 2.5883-8.6799 5.8407-2.2682.77007-2.2682.77005h-3.8015v-83.761l.98384-1.2508.98385-1.2508 85.997-.26432 5.4881-2.695 3.3283-3.8883.74507-2.1867.74508-2.1867v-7.3458l-.93198-3.644c-.5126-2.0042-1.2953-4.3577-1.7393-5.2299-.44401-.87224-2.1768-3.6596-3.8507-6.1941l-3.0434-4.6082-.73008-2.803c-.40155-1.5416-.73009-3.6296-.73009-4.64s.33802-3.4997.75113-5.5319l.75113-3.6949 1.759-3.5953 1.759-3.5953 6.7243-6.8078 8.1493-3.984 5.1643-.95277h7.817l2.7976.72869c1.5387.40078 4.2266 1.4254 5.973 2.277l3.1754 1.5483 7.2172 7.1906 3.5103 7.1906.80807 4.0358.8081 4.0358-.60076 5.7478-1.1947 2.6097c-.65711 1.4353-1.9238 3.611-2.815 4.8349-.89113 1.2239-2.2815 3.4117-3.0897 4.8618l-1.4694 2.6365-.9878 3.5857-.98778 3.5856v7.7581l1.4902 4.3734 3.3282 3.8883 5.4881 2.695 87.838.26376 1.8046 1.9938.12753 42.134.12753 42.135h-3.6763l-4.8887-1.4518-4.234-2.8031c-2.3287-1.5417-5.1034-3.2445-6.166-3.7841-1.0626-.53956-3.2197-1.3748-4.7937-1.8561l-2.8618-.87509-12.464.0978-8.4195 2.5278-3.7317 1.8763-3.7317 1.8762-6.9759 5.5579-5.6285 6.9967-2.172 4.4276-2.172 4.4276-.72886 2.8762c-.40087 1.5819-.93779 4.7129-1.1931 6.9578l-.46427 4.0816.44408 3.8937c.24425 2.1415.79909 5.2663 1.2329 6.944.43388 1.6777 1.5032 4.598 2.3761 6.4896.87303 1.8916 2.2974 4.4802 3.1652 5.7525.86786 1.2722 2.3455 3.2494 3.2836 4.3936.93814 1.1442 3.2726 3.3474 5.1877 4.8959l3.482 2.8155 8.8553 4.3591 3.7687.94808 3.7687.9481 8.7612.61341 7.6258-1.5796 2.4839-1.1372c1.3661-.62543 4.0725-2.208 6.0142-3.5169 1.9417-1.3089 4.4561-2.8511 5.5876-3.4272l2.0572-1.0474 6.2124-.58011-.13001 42.537-.12999 42.537-2.2634 1.8325h-86.007l-4.7699 1.4165-4.0395 3.4577-1.3149 2.2368-1.3149 2.2368v11.026l2.2537 6.8773 7.4636 11.572.58913 3.1222.58913 3.1223-.32049 2.7533c-.17626 1.5143-.65173 3.9398-1.0566 5.3899-.40488 1.4501-1.5248 4.1466-2.4888 5.9921l-1.7527 3.3556-5.79 5.804-2.6985 1.5439c-1.4842.84915-3.9573 1.9896-5.4959 2.5344l-2.7974.99049zm-105.42-74.14 2.8363-.0336-1.9175-.75111-1.6778.21965c-.92279.12082-1.7677.30497-1.8775.40926-.10986.10432 1.0766.17443 2.6365.15589zm183.44 62.688-2.2819.19647-3.0694-1.9284-.74234-1.4355-.74232-1.4355v-1.4307c0-.78689.19455-1.9425.43239-2.568l.43237-1.1373 25.453-28.228 1.5327-1.0786 1.5327-1.0786h3.2614l1.372.70947c.75459.39021 1.8225 1.2822 2.373 1.9821l1.0011 1.2726-.0338 4.4247-.58223 1.0318c-.32022.56747-6.2171 7.2547-13.104 14.861-6.8871 7.6058-12.979 14.238-13.537 14.738l-1.0154.90881-2.2819.19646zm91.645-.0407-2.3671.17224-1.0884-.55128-1.0884-.55129-12.813-14.142c-7.0473-7.7783-13.189-14.7-13.649-15.382l-.83574-1.2397-.002-1.9175-.002-1.9175.93574-1.5347.93575-1.5347 1.4355-.74233 1.4355-.74233h1.4394c.79164 0 2.0136.26165 2.7155.58144l1.2761.58144 13.049 14.404c7.1772 7.9223 13.3 14.873 13.607 15.446l.55756 1.0418v4.3914l-1.5877 1.7325-1.5877 1.7324-2.3671.17224zm3.2373-62.135h-41.134l-1.6079-1.1984-.12656-44.342-.12656-44.342-1.3475-2.744-1.3475-2.744-1.9442-1.6641-1.9442-1.6641-4.3734-1.4902h-7.9313l-2.5403.53743c-1.3972.29559-3.8571 1.1307-5.4666 1.8558-1.6094.72508-4.5994 2.4474-6.6445 3.8274-2.045 1.38-4.719 2.9559-5.9421 3.5021l-2.2239.99308-7.6699.0312-5.2731-1.2585-6.8691-3.3304-5.7523-5.2055-1.8842-2.993c-1.0363-1.6462-2.3784-4.2873-2.9824-5.8692l-1.0982-2.8762-.46306-10.085 1.1495-5.5372 3.8043-7.6008 4.8161-5.2696 5.9237-3.8868 3.835-1.2466 3.835-1.2466 8.6287-.0714 2.1572.97804c1.1864.53792 4.1526 2.2908 6.5914 3.8952l4.4342 2.9172 2.7402 1.0252c1.5071.56389 3.8016 1.2265 5.0988 1.4726 1.2972.246 4.0164.44728 6.0427.44728h3.6841l4.3734-1.4902 3.8883-3.3282 1.3475-2.7441 1.3475-2.744.11944-44.053.11945-44.053.52825-.63652.52826-.63652 85.95-.26428 5.4881-2.695 3.3283-3.8883 1.4902-4.3734v-7.3459l-.96079-3.7567-.96081-3.7567-1.4964-2.6717c-.82305-1.4694-2.2256-3.673-3.1167-4.8969-.89111-1.2239-2.2116-3.4889-2.9344-5.0334l-1.3142-2.8082.0537-4.554.0537-4.554 1.412-4.0958 1.412-4.0958 1.8062-2.7212 1.8063-2.7212 5.0745-4.6378 6.5954-3.4578 6.2318-1.6163 8.1493.051298 2.8167.75133c1.5492.41323 4.2411 1.4481 5.9819 2.2997l3.1651 1.5483 3.4018 3.3556 3.4018 3.3556 1.482 2.6365c.81512 1.4501 1.9183 3.9389 2.4515 5.5308l.96948 2.8942.32497 3.5864.32501 3.5864-.77947 3.0426-.7795 3.0426-3.0501 4.6182c-1.6776 2.54-3.4134 5.3319-3.8574 6.2041-.444.87223-1.2267 3.2257-1.7393 5.2299l-.93199 3.644v7.3458l.74509 2.1867.74506 2.1867 3.3283 3.8883 5.4881 2.695 87.914.26383.98405 1.251.98403 1.251v83.761h-3.661l-4.8395-1.4372-4.0189-2.6983c-2.2104-1.484-5.3335-3.3224-6.9402-4.0853l-2.9213-1.3871-7.1004-1.5149-9.108.53764-7.67 1.9469-8.8553 4.3591-3.482 2.8155c-1.9151 1.5485-4.2496 3.7517-5.1877 4.896-.93813 1.1443-2.4158 3.1214-3.2836 4.3936-.86785 1.2722-2.3128 3.9037-3.211 5.8477l-1.6331 3.5346-2.0321 8.4382v10.546l2.0321 8.4382 1.6214 3.5093c.89175 1.9301 2.4958 4.7968 3.5644 6.3706 1.0687 1.5737 3.2245 4.1628 4.7908 5.7536l2.8477 2.8922 2.967 2.0148c1.6318 1.1082 4.5182 2.7497 6.4142 3.648l3.4472 1.6332 3.835 1.0231 3.835 1.0231 11.984.1066 2.8618-.87313c1.574-.48022 3.7312-1.3101 4.7937-1.8442 1.0626-.53411 3.4419-1.9925 5.2875-3.2408s4.32-2.7617 5.4987-3.3629l2.1431-1.0932 6.0357-.4845-.1275 42.533-.12752 42.533-2.2634 1.8326h-84.263l.0156-1.7976.0156-1.7976.83699-2.3968.837-2.3969 2.4353-3.5953c1.3394-1.9774 2.986-4.6831 3.6591-6.0126.67306-1.3295 1.6152-3.7024 2.0936-5.2731l.8698-2.8558-.0415-5.9922-.0415-5.9921-2.0666-7.67-1.6331-3.4472c-.89823-1.896-2.4905-4.7098-3.5385-6.2529l-1.9053-2.8057-8.082-7.6278-7.1166-4.0277-9.1081-3.0591-11.856-.47716-6.8399 1.2069-7.6148 2.7621-6.6392 3.9443-3.5988 3.4185-3.5988 3.4185-2.0843 2.9209c-1.1464 1.6065-2.8418 4.5196-3.7676 6.4736l-1.6833 3.5527-.9858 3.835-.98581 3.835-.26883 4.554-.2688 4.554.75742 3.5502.75744 3.5502 1.389 2.9682c.76391 1.6325 2.5941 4.7278 4.067 6.8785l2.678 3.9104.73692 2.4815c.40529 1.3648.73691 3.1974.73691 4.0723v1.5908h-41.134zm-69.609-249.54-1.669.29871-3.835-2.0089-12.662-14.059c-6.964-7.7322-12.974-14.655-13.357-15.384l-.6947-1.3259.49294-4.3733 1.718-1.5744 1.718-1.5744 4.5681.0052 1.2738.83638c.70057.46 6.5249 6.6636 12.943 13.786 6.4181 7.1221 12.37 13.763 13.227 14.757l1.558 1.808-.002 2.2603-.002 2.2603-.9313 1.5274c-.51221.84005-1.3243 1.7377-1.8047 1.9948-.48036.25708-1.6244.60184-2.5424.76612zm41.714-.04731c-.92279.12694-2.1002.11699-2.6166-.02213-.51632-.13911-1.4442-.58406-2.0618-.9888-.61769-.40472-1.4356-1.3403-1.8176-2.079l-.69455-1.3431.0169-1.8215.0169-1.8214.58223-1.0309c.32023-.567 6.0459-7.0849 12.724-14.484 6.6778-7.3993 12.887-14.108 13.799-14.908l1.6571-1.4549h4.3286l2.8124 1.4543 1.4544 2.8124v4.2327l-1.0723 1.3829c-.5898.76061-6.3208 7.2073-12.736 14.326-6.4148 7.1187-12.35 13.522-13.189 14.229l-1.5257 1.286zm-20.878-8.1067-1.4131.22286-1.3809-.43087c-.7595-.23699-1.8924-.91134-2.5174-1.4986l-1.1365-1.0677-.47596-1.7134-.47598-1.7134-.003-17.153-.003-17.153.65727-1.5426c.36151-.84842 1.211-2.0529 1.8876-2.6767l1.2304-1.1341 4.1343-.42653 3.2815 1.8101 1.7519 3.2666-.002 18.224-.002 18.224-.93407 1.5319c-.51373.84254-1.441 1.8641-2.0606 2.27-.6196.40597-1.7624.83842-2.5396.961z" stroke-width=".47937"/></svg>
