<svg version="1.1" viewBox="0 0 52.135 52.406" xml:space="preserve" xmlns="http://www.w3.org/2000/svg"><g transform="translate(-114.44 -175.78)"><path d="m123.54 200.95c-.44605-1.3623-1.0292-2.7972-.80863-4.2596.58898-3.905 5.4684-5.1251 7.8201-2.0254 1.5072 1.9867.75008 4.1588.0441 6.285 2.157.31648 4.4089.1685 6.5846.15666.7747-.004 1.9757.12211 2.336-.76121.27313-.66986.17232-1.5276.1731-2.2354l.00094-4.1017c.004-.98571-.0417-2.0964.6524-2.8838.92366-1.0479 2.1261-.59713 3.2666-.27956 1.1858.33036 2.5199.35261 3.4337-.61102.26169-.27608.45767-.61007.57401-.97308.12763-.39836.15836-.83142.0881-1.244-.0641-.37643-.21229-.73408-.43258-1.0451-.8785-1.2406-2.3266-1.2934-3.6632-.93107-1.0478.28405-2.2165.71853-3.1367-.12639-.84839-.77912-.77846-2.0508-.78222-3.1073-.008-2.3138-.00079-4.6278-.00079-6.9416h-17.247c-2.1076 0-5.116-.55531-6.7563 1.0905-1.4995 1.5046-1.1731 3.7593-1.1608 5.6934.0266 4.2029-.0792 8.4156-.0792 12.621 0 1.2602-.0212 2.5228.006 3.7829.0118.55217-.0127 1.2902.4389 1.6912.57878.51383 1.6683.36143 2.3777.36285 2.0761.004 4.2127.14467 6.2714-.15745m17.874-25.084.15679 8.9926c1.3498-.44747 2.7844-1.0454 4.2333-.80381 3.9056.65122 5.0184 5.6891 1.8569 7.9791-1.8962 1.3733-4.1099.68785-6.0902-.0759l-.15679 9.1503c2.2995 0 4.5993-.008 6.8988.00079 1.0701.004 2.3175-.0543 3.1237.78708.934.97498.41738 2.1904.13124 3.314-.35748 1.4035-.18909 2.9573 1.1695 3.7578.36892.21756.79163.33951 1.22.33951.42898 0 .852-.12243 1.2219-.33951 1.3648-.80097 1.5365-2.346 1.1883-3.7578-.28975-1.1749-.81547-2.461.24067-3.4258.84055-.768 2.0953-.67334 3.1504-.67555l6.742-.00047v-17.354c0-2.1846.51411-5.1385-1.2015-6.8207-1.6593-1.6271-4.6785-1.0675-6.7948-1.0675h-17.09m-26.811 26.978v17.354c0 2.1716-.54492 5.1739 1.1806 6.8302 1.6802 1.6128 4.6885 1.058 6.8157 1.058h17.09l-.00032-6.1526c-.001-.63784.17717-1.8436-.36062-2.322-.64519-.57395-2.3233.26031-3.0884.30937-2.3551.1513-4.6371-1.7387-4.7879-4.1404-.16761-2.6714 2.2076-4.8101 4.7879-4.6742.77486.0409 2.4475.83835 3.0884.23238.44717-.4228.35404-1.3148.3589-1.87.0135-1.5216.0289-3.049-.004-4.5704-.0127-.58846.0103-1.3891-.5334-1.7646-.60694-.41933-1.5878-.28807-2.2832-.28949-1.5671-.003-3.1366.0265-4.7036-.007-.95171-.02-1.9658-.12227-2.6254-.90178-.82064-.96946-.32957-2.1202-.0521-3.1938.35842-1.3874.20461-2.9306-1.1303-3.7379-.36501-.22071-.78379-.35087-1.2101-.36491-.42333-.0139-.84651.088-1.222.28429-.2957.15461-.56162.36491-.78113.61701-1.7612 2.0233 1.1021 4.7282-.65477 6.525-.81885.83742-2.0652.77415-3.1427.77778-2.2473.007-4.4947.00063-6.742.00063m26.811 0c0 2.3138.007 4.6278-.00078 6.9416-.004 1.0788.0527 2.3305-.78223 3.1449-.9746.95053-2.1703.42612-3.2935.13205-1.399-.36617-2.9387-.18537-3.7445 1.175-.21982.37106-.34384.79481-.34996 1.2272-.005.36964.0745.74039.22656 1.0767.13531.29991.32676.57332.56351.80097 2.0108 1.9326 4.8067-1.0696 6.6073.77888.82331.84514.76937 2.0833.77298 3.181.007 2.2612.00062 4.5226.00062 6.7838h17.09c2.1132 0 5.1388.56116 6.7936-1.0674 1.7073-1.6804 1.2027-4.6424 1.2027-6.8208v-17.354h-8.937c.3523 1.601 1.0848 3.234.6281 4.89-1.0409 3.7737-5.7562 4.4676-7.8861 1.2536-1.3216-1.9945-.41659-4.043.0456-6.1436z" fill="#040404"/></g></svg>
