<svg width="47.841" height="42.013" version="1.1" viewBox="0 0 478.41 420.13" xml:space="preserve" xmlns="http://www.w3.org/2000/svg"><g transform="matrix(2.057 0 0 2.1971 -252.54 730.38)" stroke-width="1.0718"><path d="m172.14-142.78c-25.021-4.0969-32.467-18.01-30.025-56.107 1.8218-28.423.9107-30.566-14.793-34.795-5.6884-1.5317-6.0901-5.2853-.73101-6.8319 15.992-4.6151 17.425-7.9181 15.58-35.894-2.8445-43.119 8.0493-57.041 43.589-55.706 11.171.4198 11.778 2.9183 1.1326 4.6644-13.288 2.1796-13.952 3.8089-14.177 34.768-.26808 36.917-6.2613 46.997-31.797 53.482-8.186 2.0788-8.1217 2.2524 1.6263 4.3899 23.985 5.2593 29.859 15.363 30.647 52.711.68322 32.405 1.8659 35.117 15.328 35.159 5.3414.0165 8.0535 2.4265 4.9454 4.3945-1.8607 1.1782-13.472 1.0498-21.323-.23575zm112.8.50595c-4.0912-1.6508-.38388-4.6489 5.7488-4.6489 13.27 0 14.882-3.8328 14.882-35.368 0-36.122 8.1522-49.508 32.36-53.139 6.6054-.99053 6.607-2.2491.004-3.6197-25.516-5.2971-32.365-16.42-32.365-52.56 0-32.953-.68153-34.52-15.701-36.089-12.555-1.3123-7.9197-4.1186 6.6148-4.0044 34.612.27201 42.674 13.479 39.215 64.243-1.2841 18.844-.17455 21.129 12.481 25.699 9.7266 3.5124 8.6455 9.0274-1.7823 9.0917-1.9792.0122-8.1985 5.5857-9.8961 8.8685-1.5253 2.9496-1.6302 5.3585-.80267 18.432 2.3103 36.501.94521 44.479-9.1233 53.32-8.6753 7.617-32.893 13.302-41.636 9.7743z" fill="#e6cfcf"/><path d="m174.86-142.76c-28.914-4.2122-34.858-15.712-32.342-62.576 1.1361-21.162.33502-23.136-10.922-26.917-10.93-3.6706-11.679-6.4854-2.3616-8.8735 13.108-3.3594 14.854-8.4113 13.005-37.625-2.5852-40.841 9.3961-55.052 45.002-53.375 9.0396.42566 9.821 3.1789 1.2008 4.231-14.892 1.8176-15.728 3.6443-15.877 34.675-.18145 37.904-7.6672 49.607-34.977 54.684-5.3248.98998-4.342 2.1003 3.1798 3.5924 25.405 5.0396 31.904 15.65 31.923 52.113.0166 31.822 1.7304 35.865 15.225 35.92 5.7109.0231 7.9529 1.6458 5.1883 3.7551-2.2814 1.7406-8.1361 1.8672-18.244.39467zm110.08.54406c-.73683-.33102-1.3397-1.2632-1.3397-2.0716 0-1.4076 1.3544-1.7814 11.139-3.0742 9.8853-1.3061 11.564-6.8937 11.14-37.076-.47101-33.533 8.3802-47.023 33.486-51.038 6.3792-1.0201 6.1072-2.2349-.8225-3.6735-16.139-3.3504-26.817-11.88-31.468-25.134-1.1233-3.2013-1.5042-10.53-1.5042-28.937 0-31.752-.56111-33.065-14.8-34.636-12.078-1.3323-8.9396-3.9626 4.6189-3.8716 33.151.22235 43.397 13.585 40.692 53.07-2.0399 29.775-.94153 33.145 12.075 37.044 9.2842 2.7811 9.646 6.8759.73344 8.3011-12.611 2.0166-14.944 9.1556-12.807 39.188 1.9516 27.421-.67808 36.259-13.264 44.576-7.8915 5.2147-32.144 9.9096-37.88 7.3328z" fill="#cfafaf"/><path d="m179.64-142.21c-12.55-2.1417-16.209-3.1262-20.744-5.5813-15.966-8.6428-18.423-17.311-16.332-57.624 1.1241-21.672.41085-23.284-12.224-27.631-8.9228-3.0699-9.5686-5.7846-1.845-7.7549 13.543-3.4549 15.113-6.8119 13.986-29.914-1.3394-27.478-1.0481-34.434 1.7106-40.841 5.7984-13.468 22.085-21.387 42.289-20.56 10.075.41212 10.976 3.1676 1.3729 4.1992-14.369 1.5436-15.14 3.2629-15.324 34.16-.22109 37.18-6.4999 47.834-31.959 54.229-8.3136 2.0883-8.0664 2.7004 2.0932 5.1846 24.667 6.0312 30.788 17.094 30.282 54.728-.37313 27.777 1.7414 32.648 14.195 32.701 9.6737.0409 9.9646 4.322.33102 4.8706-2.8346.16142-6.3596.0878-7.8332-.16376zm105.57-.79523c-2.5509-1.9284 1.0813-3.924 7.1421-3.924 11.69 0 13.218-3.7737 13.235-32.688.0226-38.555 6.7473-50.012 32.474-55.326 7.166-1.4801 8.3373-2.6589 3.6833-3.7071-30.356-6.8366-36.171-15.524-36.171-54.036 0-31.886-1.547-35.361-15.745-35.366-5.2015-.002-7.601-1.6268-5.0234-3.402 2.1117-1.4544 20.813-.27057 27.361 1.732 19.551 5.9794 26.33 19.419 24.089 47.753-2.6617 33.645-1.9705 35.898 12.515 40.798 7.5057 2.5389 8.5709 5.0327 2.8788 6.7403-17.097 5.1288-18.223 8.3422-15.399 43.937 1.967 24.792-2.1729 35.078-17.279 42.934-8.9441 4.651-29.894 7.4777-33.76 4.5551z" fill="#c89696"/><path d="m284.82-143.33c-2.1285-1.5641 2.0836-3.5934 7.4588-3.5934 12.179 0 14.006-4.7068 13.683-35.246-.37938-35.896 6.9225-47.729 32.566-52.775 6.6875-1.316 7.8607-2.6615 3.2152-3.6874-29.698-6.5587-36.154-16.19-35.868-53.513.24163-31.554-1.0624-34.704-14.774-35.696-11.317-.81857-9.5626-4.463 2.1462-4.4593 36.046.0114 46.479 15.549 41.841 62.313-1.9495 19.657.26405 24.394 13.451 28.782 9.2234 3.0694 9.051 6.0422-.4552 7.8461-11.461 2.1748-14.776 9.6757-13.032 29.487 3.4521 39.222-.52817 50.705-20.115 58.033-7.5508 2.8251-27.431 4.481-30.116 2.5085zm-112.15-.0341c-27.5-6.1453-33.757-19.499-29.404-62.752 1.8142-18.026-.41962-22.615-13.14-26.996-8.7825-3.0242-9.2957-5.7303-1.4655-7.7278 12.918-3.2955 16.288-9.8873 14.6-28.56-4.4141-48.83 6.1965-64.227 43.217-62.712 10.451.42753 10.9 3.1664.70245 4.2909-13.641 1.5043-14.848 4.3452-14.964 35.213-.13953 37.344-6.938 47.581-35.873 54.014-4.3553.9684-2.458 2.2722 6.2144 4.2705 23.934 5.515 30.075 15.797 29.74 49.793-.31459 31.922 1.3029 36.186 14.232 37.525 7.3457.76031 8.7694 1.363 7.6184 3.2253-.68898 1.1148-16.943 1.4291-21.479.4154z" fill="#b29090"/><path d="m167.59-144.63c-20.388-5.3709-26.227-16.35-24.877-46.775 1.2497-28.158 1.1703-30.951-.97288-34.222-2.3668-3.6122-7.4206-6.7558-13.294-8.2693-7.6431-1.9695-7.0312-4.7619 1.5775-7.1985 11.642-3.2952 14.861-10.243 13.251-28.599-4.2671-48.646 5.7042-62.77 44.213-62.629 9.7561.0358 9.3843 3.2032-.51301 4.3702-13.349 1.574-14.64 4.6653-14.755 35.341-.13953 37.344-6.938 47.581-35.873 54.014-4.213.93677-2.5465 2.1644 5.7817 4.2592 25.074 6.3066 30.226 15.213 30.418 52.579.16124 31.365.69434 32.714 13.887 35.149 3.8451.70965 7.1449 1.7726 7.3329 2.362.62815 1.9694-18.299 1.6932-26.177-.38204zm116.63 1.0531c-.89014-1.4403.24068-1.8738 7.4045-2.8383 13.527-1.8213 14.666-4.6626 14.337-35.758-.37669-35.641 7.0683-47.759 32.402-52.743 6.8374-1.3452 8.0559-2.6864 3.3788-3.7193-29.535-6.5226-36.219-16.353-35.782-52.627.38036-31.585-1.1199-35.639-13.51-36.51-11.52-.80979-11.865-4.6004-.41289-4.5294 33.948.21045 46.76 14.807 43.906 50.022-2.6731 32.986.61008 42.012 15.314 42.1 6.351.0382 4.5346 5.0291-2.3971 6.5865-13.421 3.0154-15.525 8.7137-13.422 36.34 2.5627 33.653-1.6962 44.297-20.6 51.483-7.142 2.7149-29.315 4.303-30.619 2.193z" fill="#ae6b6b"/><path d="m171.26-143.79c-24.568-4.8347-31.256-18.675-28.065-58.075 1.9305-23.837-.0959-28.38-14.246-31.937-7.1044-1.7861-6.7976-5.0271.65419-6.911 12.812-3.2391 15.359-9.5751 13.571-33.762-2.7636-37.375 1.6178-48.096 22.326-54.629 8.5667-2.7026 26.335-4.1187 27.525-2.1937 1.1794 1.9083-1.3981 3.2065-6.4135 3.2304-12.248.0583-13.79 3.771-14.473 34.844-.81988 37.319-7.0329 47.786-31.69 53.386-8.515 1.9339-8.3738 3.3847.52507 5.3943 25.314 5.7167 30.395 14.043 31.161 51.074.68467 33.072 1.8038 35.784 15.343 37.181 4.1198.42521 6.0995 1.1026 6.0995 2.0872 0 1.6834-14.329 1.883-22.318.31092zm113.42-.32814c0-1.0046 1.794-1.6258 5.6267-1.9483 14.899-1.2536 16.177-4.1785 16.272-37.26.10331-36.013 6.4556-46.223 32.017-51.461 7.6667-1.571 7.4462-3.1813-.68841-5.0288-25.552-5.8031-32.008-16.617-31.658-53.027.29358-30.604-1.1977-34.166-14.663-35.023-10.275-.65424-9.3135-4.477 1.1258-4.477 35.691 0 46.261 15.508 42.163 61.861-1.8435 20.849.39701 25.72 13.575 29.515 7.3466 2.1158 8.2128 5.7568 1.6203 6.811-15.023 2.4022-16.589 7.3582-14.539 46.011 1.2912 24.346-2.6451 33.806-16.861 40.519-9.8345 4.6444-33.989 7.137-33.989 3.5074z" fill="#c14848"/><path d="m173.95-143.83c-3.7649-2.1902-4.4064-6.375-4.9921-32.569-.74043-33.112-4.3361-41.495-20.018-46.671-4.78-1.5775-5.0788-1.1806-2.9392 3.9045 1.593 3.7862 1.63 6.1344.38931 24.719-1.2893 19.312-1.1274 28.035.61369 33.052.74155 2.1369.73886 2.1369-.87294-.006-4.1661-5.5388-4.9978-18.172-2.7943-42.446 1.9046-20.982-.32966-26.003-13.158-29.57-8.2763-2.301-8.5154-5.2871-.58385-7.2923 12.812-3.2391 15.359-9.5752 13.571-33.762-2.7636-37.375 1.6178-48.096 22.326-54.629 8.5667-2.7026 26.335-4.1187 27.525-2.1937 1.1636 1.8827-1.3806 3.2069-6.1988 3.2263-4.5023.0181-9.5105 2.2071-11.671 5.1011-.82286 1.1022-3.0547 1.9777-5.388 2.1134-9.6293.56022-19.888 9.0876-22.841 18.986-1.9203 6.4364-1.9648 11.079-.32638 33.982 1.637 22.882.58096 26.951-7.3725 28.414-7.4294 1.366-6.8291 3.0954 1.7466 5.0321 25.314 5.7167 30.395 14.043 31.161 51.074.68467 33.072 1.8038 35.784 15.343 37.181 4.1198.42521 6.0995 1.1026 6.0995 2.0872 0 1.8021-16.592 2.0278-19.619.26685zm110.72-.28407c0-1.0046 1.794-1.6258 5.6267-1.9483 14.899-1.2536 16.177-4.1785 16.272-37.26.10331-36.013 6.4556-46.223 32.017-51.461 7.3469-1.5055 7.4428-3.0641.30032-4.8776-8.053-2.0447-9.1293-6.1946-7.2169-27.824 3.2143-36.352-4.8247-54.137-24.471-54.137-1.6538 0-3.2554-.64746-3.559-1.4388-.94455-2.4614-7.7895-4.9917-13.504-4.9917-5.4946 0-7.7004-2.128-3.7694-3.6364 5.0078-1.9216 24.262.93109 32.191 4.7694 15.804 7.6507 19.493 20.417 16.308 56.441-1.8435 20.849.39701 25.72 13.575 29.515 7.1362 2.0552 8.1654 5.6435 1.9421 6.7709-5.609 1.0161-9.232 3.0062-12.463 6.8456-1.5058 1.7896-3.5116 3.2537-4.4574 3.2537-15.864 0-23.599 15.441-23.622 47.157-.0246 33.755-.28735 34.296-16.664 34.296-6.5047 0-8.5042-.34679-8.5042-1.4749zm46.588-16.209c1.6931-4.7308 1.8869-15.521.57578-32.059-1.3907-17.541-1.0048-25.647 1.3762-28.909 1.0529-1.4422 1.3053-.11377 1.3468 7.0896.0281 4.8753.46129 16.598.96267 26.051.94322 17.782.33114 22.731-3.4416 27.827-1.587 2.1435-1.587 2.1435-.81986 0zm-164.75-98.869c1.4167-3.2188 1.8885-9.1408 2.3692-29.741.52258-22.395 1.8789-33.806 3.6095-30.369 1.9016 3.7773-1.2851 52.637-3.7807 57.966-3.1706 6.7703-5.0344 8.588-2.198 2.1435zm142.56-1.6076c-2.3169-4.3372-2.4387-5.7391-2.5477-29.324-.0629-13.623-.40351-26.163-.7568-27.865-.47847-2.3061-.0437-1.8655 1.7039 1.727 2.225 4.5736 2.3312 6.0205 2.0562 28.001-.22339 17.849.06 24.194 1.2325 27.597 1.949 5.6569 1.3819 5.6114-1.6881-.13559z" fill="#b94545"/><path d="m173.97-145.12c-3.2131-4.9039-3.9675-11.06-3.9735-32.424-.009-32.192-4.2029-41.215-21.946-47.218-2.9301-.99135-7.1669-3.1349-9.415-4.7634s-6.5031-3.5801-9.4554-4.3367c-7.2752-1.8646-7.0887-4.9497.41393-6.8465 12.812-3.2391 15.359-9.5751 13.571-33.762-2.7636-37.375 1.6178-48.096 22.326-54.629 8.5667-2.7026 26.335-4.1187 27.525-2.1937 1.1628 1.8814-1.3796 3.2069-6.1882 3.2264-2.234.009-5.9557.98265-8.2706 2.1636-2.3149 1.181-6.5257 2.6441-9.3574 3.2514-21.989 4.7158-27.084 16.809-23.768 56.422 1.5906 19.003-.8267 27.134-8.0665 27.134-2.5084 0-4.6138 1.7013-3.4927 2.8224.29496.29495 3.6619 1.1902 7.4821 1.9895 24.601 5.1472 30.009 14.096 30.771 50.919.68467 33.072 1.8038 35.784 15.343 37.181 10.151 1.0476 8.1167 3.5449-2.8871 3.5449-8.2118 0-9.1268-.21395-10.612-2.4813zm110.7 1.0064c0-1.0046 1.794-1.6258 5.6267-1.9483 14.899-1.2536 16.177-4.1785 16.272-37.26.10331-36.013 6.4556-46.223 32.017-51.461 7.0251-1.4396 7.5638-3.2249 1.4121-4.6798-6.7466-1.5955-7.7183-4.3176-7.1262-19.964 1.1716-30.962.75541-42.013-1.7571-46.654-4.3798-8.091-15.686-16.495-22.33-16.598-1.1789-.0183-4.5549-1.2196-7.5022-2.6694-3.5768-1.7595-7.2297-2.6472-10.985-2.6696-5.6433-.0336-7.9051-2.1451-3.9314-3.67 5.0078-1.9216 24.262.93109 32.191 4.7694 15.804 7.6507 19.493 20.417 16.308 56.441-1.8435 20.849.39701 25.72 13.575 29.515 5.1435 1.4813 8.6468 6.1419 4.6294 6.1588-3.5838.0151-9.8242 2.5225-12.965 5.2092-1.8996 1.6251-5.383 3.5112-7.7409 4.1914-19.091 5.5074-24.256 16.299-24.022 50.189.21404 30.957-.51716 32.575-14.727 32.575-6.8778 0-8.9437-.34069-8.9437-1.4749zm49.407-29.957c-.0587-5.2037-.6362-15.262-1.2832-22.352-.647-7.0902-.80178-15.131-.34391-17.868.7468-4.4649.96908-3.5433 2.1601 8.9556 1.5033 15.777 1.7108 34.054.43196 38.047-.57901 1.808-.89282-.39772-.96491-6.7819zm-191.15 4.7724c-1.8578-8.3599.70612-53.51 2.6526-46.712.51775 1.8083.41496 10.085-.23905 19.249-.63104 8.8419-1.2514 19.452-1.3785 23.578-.18989 6.1622-.37476 6.8561-1.035 3.8851zm26.853-116.74c.18014-12.79.76094-24.702 1.2907-26.471.61926-2.0672.86487 5.3949.68789 20.899-.1514 13.263-.7322 25.175-1.2907 26.471-.66823 1.5507-.90343-5.5948-.68789-20.899zm136.89 18.178c-1.0519-4.7892-.21843-47.666.87185-44.852.86391 2.2294 1.0828 46.797.23398 47.646-.22195.22196-.71959-1.0353-1.1058-2.7938z" fill="#ad4040"/><path d="m174.81-145.19c-3.1422-4.7957-3.7387-9.7858-3.7387-31.278 0-33.349-4.3673-42.54-23.428-49.304-6.8448-2.4288-9.4334-3.7203-11.712-5.8432-1.0739-1.0005-4.246-2.163-7.0491-2.5833-7.1821-1.077-6.7971-4.6125.70885-6.51 8.6664-2.191 13.46-7.9427 14.713-17.655.76428-5.9211.76428-5.9211.90481 1.622.18059 9.6936-2.9709 16.814-7.8092 17.643-4.1809.71651-4.7602 2.9742-.96836 3.7734 30.256 6.3771 34.9 13.136 35.704 51.957.68467 33.072 1.8038 35.784 15.343 37.181 9.9157 1.0234 8.1732 3.5449-2.4498 3.5449-7.8189 0-8.6919-.21767-10.219-2.5479zm109.87.94026c0-1.164 1.2568-1.6301 4.5549-1.6892 11.556-.20686 15.392-4.0952 17.496-17.738 1.4669-9.5102 1.4669-9.5102 1.0509.67136-.42675 10.443-1.6048 15.191-4.5869 18.486-2.3212 2.5649-18.515 2.801-18.515.2699zm50.585-30.896c-.11713-3.4353-.72809-11.891-1.3577-18.791-.62962-6.8995-.99133-14.699-.80381-17.332.55148-7.7444 3.234 25.372 2.7809 34.331-.37721 7.4592-.42182 7.5883-.61943 1.7921zm-192.45-13.045c.28649-10.021.94867-20.631 1.4715-23.578 1.045-5.8905.39595 11.832-1.1382 31.081-.6598 8.2783-.73566 6.5708-.33332-7.5022zm163.73-2.6794c.24862-27.754 8.5251-39.094 32.051-43.915 6.8573-1.4052 7.4162-2.8985 1.7682-4.7241-5.3658-1.7343-7.4892-6.5985-7.3064-16.737.14498-8.0381.14498-8.0381.88531-1.6076 1.1869 10.309 4.2809 13.905 14.524 16.881 8.6845 2.5231 8.002 7.1215-.93848 6.3231-1.0961-.0978-3.7346 1.5137-5.8634 3.5813-2.1287 2.0676-4.78 3.7593-5.8919 3.7593-15.457 0-27.283 16.615-28.605 40.19-.78161 13.933-.78161 13.933-.62319-3.7511zm-.32234-93.331c.0588-9.0875.49833-17.728.97683-19.202.47849-1.4736.60476 5.7606.28057 16.076-.73498 23.387-1.3991 25.038-1.2574 3.1259zm-134.7-7.4129c0-11.494.15767-16.197.35038-10.45.19271 5.7472.19271 15.152 0 20.899-.19271 5.7472-.35038 1.045-.35038-10.45zm163.76 4.2136c-.46566-18.666-8.1764-30.678-22.326-34.779-3.4673-1.0051-8.8791-2.7378-12.026-3.8505-3.1471-1.1127-8.0906-2.0231-10.985-2.0231-3.7844 0-5.2634-.41951-5.2634-1.493 0-3.2304 7.9836-3.6912 20.955-1.2093 22.465 4.2984 30.915 15.58 30.218 40.345-.30979 11.008-.36545 11.3-.57225 3.0104zm-192.75-6.8929c.24869-20.664 6.0633-29.473 22.977-34.809 8.4247-2.6578 26.335-4.1184 27.495-2.2422 1.1897 1.9249.0151 2.5734-6.1524 3.397-3.0744.41051-7.76 1.4916-10.413 2.4023s-7.5872 2.4289-10.966 3.3736c-14.039 3.9255-21.166 13.813-22.36 31.018-.74867 10.793-.74867 10.793-.581-3.1399z" fill="#a43d3d"/><path d="m175.38-145.82c-2.7347-3.8406-4.3559-12.899-4.1292-23.073.16716-7.5022.16716-7.5022.83523 2.1435 1.0324 14.906 4.423 19.437 15.392 20.569 9.5946.99025 8.2501 3.5449-1.8656 3.5449-7.6099 0-8.0662-.14204-10.233-3.1847zm109.3 1.5771c0-1.164 1.2568-1.6301 4.5549-1.6892 10.217-.18288 15.279-4.2128 16.814-13.384.88538-5.2903.88538-5.2903 1.0054-1.0033.16249 5.8009-1.7427 12.348-4.4445 15.272-2.8048 3.0362-17.93 3.7143-17.93.80381zm21.505-55.268c-.30611-16.598 17.208-35.294 33.064-35.294 5.7263 0 2.4681 5.7458-3.9399 6.9479-13.255 2.4867-23.785 12.567-27.476 26.302-1.4573 5.4232-1.5824 5.5783-1.6476 2.0441zm-135.11.11361c0-11.402-13.323-25.2-27.372-28.347-8.5707-1.9202-10.008-7.802-1.5649-6.4042 11.171 1.8494 22.095 9.8607 26.503 19.436 2.4404 5.3015 4.611 17.419 3.1202 17.419-.3772 0-.68582-.94648-.68582-2.1033zm-46.963-37.706c.26121-1.753 1.5624-2.6069 5.4827-3.598 5.6003-1.4158 10.86-5.6652 13.263-10.716 1.5297-3.2152 1.5297-3.2152 1.0197 1.5148-.59069 5.4789-3.6273 10.125-6.9394 10.617-1.2684.18853-2.8044 1.2737-3.4134 2.4114-1.7093 3.1938-9.8926 2.994-9.4123-.22985zm220.66.29658c-.58927-1.101-2.4683-2.2813-4.1757-2.6228-3.5159-.70318-6.6456-5.9757-6.5756-11.078.0419-3.0533.0419-3.0533 1.49.27316 1.8313 4.207 6.1365 7.2871 12.954 9.2677 4.0309 1.1711 5.4255 2.1174 5.684 3.8566.47235 3.1788-7.6962 3.4427-9.3765.30288zm-173.29-56.944c0-7.3682.17123-10.383.38051-6.6984.20928 3.6841.20928 9.7127 0 13.397-.20928 3.6841-.38051.66985-.38051-6.6984zm-28.892-8.2294c.77755-12.974 9.0242-22.735 22.908-27.116 8.5667-2.7026 26.335-4.1187 27.525-2.1937 1.1538 1.867-1.3692 3.2068-6.0758 3.2264-2.1721.009-5.307.55021-6.9663 1.2026-1.6594.65242-6.046 1.836-9.7481 2.6302-14.803 3.1756-24.327 11.751-27.063 24.367-.9004 4.1523-.94582 3.9865-.58005-2.1168zm192.6 3.9425c-.85385-11.729-12.682-23.08-27.323-26.223-3.6216-.77737-7.9425-1.9472-9.6019-2.5996-1.6594-.65241-5.3971-1.1862-8.306-1.1862-5.3338 0-7.461-2.1524-3.5937-3.6364 5.0078-1.9216 24.262.93109 32.191 4.7694 10.019 4.8502 18.44 18.534 17.262 28.05-.33424 2.7001-.47874 2.8899-.62898.82611z" fill="#973838"/><path d="m177.82-144.25c-1.265-.88602-2.8672-3.3298-3.5605-5.4305-1.4967-4.535-.89923-5.7975 1.034-2.1851 1.7471 3.2644 5.5654 4.9926 12.656 5.7278 3.7438.38821 5.6267 1.0713 5.6267 2.0411 0 2.112-12.698 1.9885-15.756-.15326zm106.85.003c0-1.164 1.2568-1.6301 4.5549-1.6892 6.7222-.12033 11.749-2.3185 14.469-6.3268 2.5904-3.8182 3.1126-3.0839 1.2683 1.7836-2.6843 7.0846-20.292 12.492-20.292 6.2323zm21.47-57.412c-.30026-14.426 16.902-32.079 31.259-32.079 5.6327 0 3.1978 3.2479-4.116 5.4904-12.433 3.812-21.462 11.925-25.148 22.595-1.0781 3.1212-1.9759 4.9185-1.9951 3.9939zm-135.07-1.5531c0-9.3482-11.93-20.58-26.794-25.226-6.675-2.0866-7.8225-4.5784-2.3504-5.104 7.6884-.7384 21.534 8.3378 25.963 17.02 2.4312 4.7655 4.7842 13.691 3.8544 14.621-.3704.3704-.67345-.21923-.67345-1.3103zm-46.963-33.896c.25789-1.7307 1.5419-2.6016 5.1983-3.5258 5.7844-1.462 9.2155-3.705 11.903-7.7815 1.6956-2.5717 1.9827-2.6964 1.9853-.86283.004 3.0595-3.8507 8.9704-6.6878 10.254-1.326.60008-3.6166 1.7867-5.0903 2.6368-4.1851 2.4145-7.724 2.0653-7.3088-.72109zm224.15 1.5523c-1.2835-.24985-2.91-1.1487-3.6144-1.9975-.70445-.84881-1.9023-1.5433-2.6619-1.5433-1.9084 0-6.9304-6.1701-6.9304-8.5148 0-1.547.70947-1.2508 3.6529 1.5253 2.1694 2.0461 5.9778 4.0898 9.3778 5.0326 8.8774 2.4615 9.0297 7.2213.17602 5.4978zm-14.146-68.897c-3.9715-13.256-17.448-20.709-42.382-23.439-6.8658-.75185-9.023-2.7708-4.113-3.8492 4.1636-.91449 20.842 1.0852 27.503 3.2975 10.378 3.4469 23.135 20.257 20.766 27.363-.22106.66318-1.0191-.85409-1.7734-3.3717zm-191.85 1.5875c-.24904-15.475 15.844-27.07 40.062-28.863 12.784-.9466 16.06 2.1986 3.9986 3.8393-27.665 3.7632-37.024 8.9934-42.768 23.902-.90495 2.3487-1.2678 2.6636-1.2926 1.1219z" fill="#873232"/><path d="m177.98-146.23c-2.0359-2.0359-3.7017-4.2322-3.7017-4.8806 0-.6484.93325-.24566 2.0739.89499 2.3792 2.3792 8.6155 4.3419 13.824 4.3506 5.969.01 3.4318 2.6421-2.9024 3.011-5.1449.29963-5.8878.0298-9.2935-3.376zm106.69 2.1274c0-1.0074 2.0372-1.6435 6.5845-2.0558 4.2793-.38804 7.6562-1.3894 9.6457-2.8603 3.994-2.9529 3.9459-.77544-.0716 3.2421-3.542 3.542-16.159 4.8491-16.159 1.674zm23.578-66.556c0-7.4157 16.687-21.949 25.711-22.393 5.2815-.25984 3.6026 1.8453-3.8932 4.8817-8.1913 3.3181-13.372 7.171-18.334 13.636-1.9157 2.4958-3.4832 4.2399-3.4832 3.8758zm-142.76-5.999c-3.7793-4.8829-9.9092-8.6007-22.767-13.808-2.5046-1.0144-2.8378-1.486-1.6076-2.2758 5.2631-3.3789 21.997 6.8561 26.89 16.447 2.9566 5.7954 2.1623 5.681-2.5153-.36246zm-41.178-19.73c-.82848-2.159.42246-3.7844 2.9126-3.7844 3.4465 0 9.3568-2.8984 12.228-5.9968 3.2026-3.4557 3.4749-2.2887.57538 2.4666-1.2165 1.9951-4.024 4.2886-6.6944 5.4687-7.5107 3.3192-8.3875 3.4986-9.0218 1.8458zm222.84-.73822c-5.1095-1.9131-11.032-7.0742-11.032-9.6134 0-.57423 1.5674.12558 3.4832 1.5551 1.9158 1.4295 6.0152 3.422 9.1098 4.4276 5.0402 1.6379 7.0876 3.8591 4.8229 5.2323-.4421.26807-3.3147-.45271-6.3835-1.6017zm-15.886-75.012c-5.7542-8.869-17.965-14.206-35.786-15.641-10.185-.82005-13.829-2.6575-7.8664-3.967 15.171-3.332 38.276 5.9737 44.339 17.857 2.6394 5.1735 2.2233 6.235-.68613 1.7506zm-186.98 1.6911c.0128-3.1924 7.4575-11.797 13.366-15.449 6.6875-4.1331 31.12-7.9094 34.858-5.3877 2.7025 1.8228-.42161 2.9005-10.751 3.7086-16.986 1.3288-26.35 5.1255-33.636 13.637-2.1126 2.4681-3.8393 4.0389-3.8371 3.4907z" fill="#762c2c"/><path d="m184.07-143.69c-1.9868-.4816-4.6394-1.9076-5.8946-3.1688-2.2822-2.2932-2.2822-2.2932 2.4075-.64479 2.5793.90662 6.5984 1.6484 8.9312 1.6484 2.9134 0 4.1038.4195 3.8016 1.3397-.54017 1.6451-4.4314 1.9925-9.2457.82554zm100.61-.25947c0-1.1872 1.6931-1.7616 6.4688-2.1946 3.5578-.32261 7.6427-1.3558 9.0776-2.2959 2.3024-1.5086 2.5344-1.5155 1.9753-.0585-1.5162 3.9512-17.522 8.1066-17.522 4.549zm25.722-72.025c0-4.1945 12.959-19.425 22.863-16.451 2.0462.61439.18801 1.3789-5.7152 4.1759-4.5434 2.1527-10.018 5.8028-12.593 8.3956-2.5052 2.5229-4.5549 4.2685-4.5549 3.8792zm-146.57-4.0992c-3.3458-3.4493-8.5808-6.577-16.869-10.079-3.6299-1.5336-3.9239-1.8756-1.9181-2.2317 4.9209-.87348 15.846 5.7991 20.734 12.663 2.9099 4.0866 2.242 3.9657-1.9466-.35243zm-39.912-17.302c0-1.025 1.7054-2.0876 4.5549-2.8379 2.5052-.65966 6.2429-2.1738 8.306-3.3647 3.7511-2.1653 3.7511-2.1653 1.0717.76032-4.056 4.4289-13.933 8.2868-13.933 5.4423zm223.48-.83101c-6.0439-2.3854-7.6898-3.5524-9.3285-6.6142-1.0837-2.025-.97758-2.0134 1.835.19895 1.6419 1.2915 5.5618 3.0972 8.711 4.0127 3.4722 1.0094 5.7257 2.2673 5.7257 3.1961 0 1.8707-.27143 1.8396-6.9432-.79353zm-200.17-77.52c3.2005-12.973 28.96-18.524 44.901-16.072 4.5482.69947 1.0648 2.3794-8.9962 3.0567-17.02 1.1458-25.095 3.997-33.395 11.792-3.9486 3.7083-4.3613 3.9095-2.5094 1.2231zm181.31-1.1737c-6.705-7.1776-17.548-10.991-33.119-11.648-10.065-.42456-13.68-1.9029-7.8078-3.1928 13.237-2.9074 35.099 4.6847 42.257 14.675 2.6594 3.7117 2.0524 3.7874-1.3306.16595z" fill="#662626"/><path d="m151.2-321.41c5.1074-11.387 37.511-12.628 42.376-8.9407.001.37903-2.8649.52713-6.3689.32911-9.2968-.52537-21.159 1.5763-28.125 4.9829-3.35 1.6383-8.179 4.1093-7.882 3.6287zm164.92-4.1872c-5.644-2.5493-16.932-4.8846-25.076-4.4244-6.5978.37285-8.5784-1.2805-3.5976-1.7103 24.882-2.1473 36.1 5.1515 39.231 11.237.60474 1.1756-6.068-3.0744-10.557-5.1019z" fill="#5c2222"/></g></svg>
