<svg width="48.012" height="48.013" version="1.1" viewBox="0 0 480.12 480.13" xml:space="preserve" xmlns="http://www.w3.org/2000/svg"><g transform="translate(-113.66 -356.81)"><path d="m500.76 366.5c2.0208 2.0621 4.5758 3.5957 6.933 5.2692 3.3868 2.4062 6.7223 4.8948 10.014 7.4227 10.369 7.9605 20.283 16.427 29.799 25.339 9.077 8.501 17.707 17.504 25.767 26.925 2.8092 3.2818 5.5387 6.6174 8.2271 9.9931 1.6921 2.1271 3.2481 4.4048 5.2793 6.2457 1.6305-9.4313 3.7848-18.72 4.9942-28.231 1.574-12.389 1.9438-24.755 1.9387-37.225 0-5.5016-.36724-11.012-.88077-16.489-.17717-1.8729-.0283-4.9112-1.4148-6.3823-1.3404-1.424-4.3626-1.2155-6.178-1.3073-5.3897-.27254-10.779-.30492-16.177-.30492-15.792 0-31.442 1.367-46.99 4.0944-7.1794 1.2592-14.215 3.0347-21.312 4.6495m-18.745 5.9224c-2.2878-.007-4.8222 1.3255-6.9329 2.0865-4.7528 1.7129-9.4801 3.4954-14.123 5.4753-17.343 7.3946-33.915 16.036-49.814 26.05-18.293 11.521-36.2 24.813-51.028 40.417-13.546 14.256-24.892 30.607-35.561 46.962-13.579 20.816-26.132 42.242-38.125 63.956-7.6665 13.881-15.11 27.876-22.354 41.971-2.1751 4.2329-4.2794 8.4967-6.4316 12.741-1.1172 2.2035-2.7414 4.5644-3.2426 6.9927-.53507 2.5957 1.9741 4.3471 3.6999 5.9035 4.3174 3.8948 8.6081 7.8347 12.843 11.814 15.125 14.21 30.799 27.871 45.988 42.021 3.8041 3.5426 7.6496 7.0727 11.53 10.535 1.5242 1.3616 3.4059 3.5376 5.649 3.5825 2.2702.0425 4.7139-1.6389 6.6761-2.5907l13.609-6.6205c17.874-8.7165 35.404-18.15 52.639-28.008 21.135-12.089 41.739-25.035 61.626-38.988 12.202-8.5616 24.535-17.385 35.504-27.431 10.931-10.01 20.848-21.315 29.93-32.923 20.442-26.13 37.014-55.892 46.705-87.44 1.2043-3.9268-1.1632-6.4068-3.3972-9.4935-4.2907-5.9277-8.8716-11.631-13.591-17.238-17.24-20.484-37.291-39.002-58.945-55.027-5.1329-3.7992-10.369-7.4508-15.663-11.033-2.008-1.359-4.604-3.7086-7.1897-3.7158m-46.99 82.619c7.1049-.47342 14.883.88485 21.569 3.1803 7.96 2.7324 15.258 6.9697 21.433 12.58 16.916 15.367 22.917 39.845 15.55 61.085-2.4111 6.9518-6.2294 13.39-11.088 18.986-4.7888 5.5145-10.633 10.084-17.165 13.503-7.1769 3.7564-15.324 6.1413-23.469 6.6779-8.6918.5729-17.366-.47515-25.575-3.3904-22.018-7.8188-37.543-28.28-38.968-51.017-.43912-6.9962.5777-14.038 2.6396-20.736 2.0311-6.6018 5.3511-12.792 9.683-18.238 4.9146-6.1761 10.951-11.249 17.915-15.127 8.4941-4.7298 17.784-6.86 27.475-7.5056m-1.7974 14.26c-5.2357.39948-10.371 1.6424-15.15 3.771-4.6682 2.0788-8.9949 4.9109-12.685 8.3908-14.279 13.473-17.622 35.061-8.5429 52.172 2.3161 4.362 5.4308 8.5169 9.172 11.822 4.4114 3.8956 9.5366 7.0207 15.137 9.0176 6.422 2.2892 13.304 3.0682 20.113 2.5468 5.5412-.42426 11.144-2.0434 16.092-4.475 5.0739-2.4935 9.6984-5.8297 13.473-9.9752 16.149-17.737 14.86-45.821-3.1018-61.921-4.3138-3.8674-9.4955-6.8793-14.993-8.8632-6.1831-2.231-12.954-2.9867-19.515-2.4863m-175.63 39.476c-9.7936.77171-19.155 3.7352-27.218 9.2949-3.8182 2.6327-7.0066 5.8418-10.28 9.068-4.095 4.0362-8.1292 8.116-12.13 12.241-11.059 11.403-22.257 22.766-33.581 33.921-6.2216 6.1282-12.321 12.373-18.488 18.554-1.4392 1.4424-2.9529 2.877-4.2255 4.4647-.39601.49418-1.1162 1.3413-.72436 2.0129.3055.52388 1.1095.62007 1.6559.69522 1.3394.18463 2.711.23164 4.0599.32254 5.8201.39223 11.663.50619 17.479.93215 15.724 1.1512 31.506 1.7098 47.249 2.6039 6.1631.35 12.321.69501 18.485 1.0041 2.7873.13986 5.6488.63955 8.4407.39045 2.0344-.18134 2.8432-1.5847 3.7381-3.1988 1.2304-2.2198 2.3521-4.496 3.5348-6.7399 5.6246-10.672 11.445-21.253 16.961-31.978 6.5008-12.642 13.437-25.07 19.911-37.724 1.5471-3.0236 3.2076-5.9951 4.8058-8.9938.56797-1.0658 1.6166-2.7107.95546-3.9355-.49303-.91312-1.7496-.97887-2.6756-1.0468-2.4607-.18141-4.9306-.42745-7.3974-.49872-6.4997-.1871-13.023-.70351-19.515-1.084-3.6986-.21686-7.3294-.59782-11.041-.30529m-12.839 120.46c-2.1171-.10992-4.6368 1.8637-6.4193 2.8156-4.9699 2.6532-9.9379 5.3139-14.893 7.9946-1.962 1.0617-5.3663 2.5007-4.3136 5.2614.96758 2.5357 3.9408 4.6318 5.854 6.493l75.749 73.7c1.6985 1.6513 4.2321 5.1465 6.9054 5.129 2.5744-.0179 3.7733-3.5501 4.7136-5.3788 2.7753-5.3963 5.4431-10.843 8.2168-16.239.91918-1.7888 2.957-4.432 1.9727-6.4931-1.0456-2.191-3.6346-3.8648-5.3751-5.5162-3.8467-3.6525-7.6788-7.3175-11.476-11.017-13.794-13.438-27.791-26.762-41.92-39.868-4.4394-4.1171-8.7655-8.3393-13.109-12.554-1.5059-1.4615-3.5861-4.2096-5.9055-4.3271m197.68 19.037c-2.542.37978-5.2048 2.4409-7.4105 3.6475-4.8685 2.6657-9.7703 5.2689-14.636 7.942-16.197 8.8964-32.538 17.553-48.787 26.357-5.2226 2.8305-10.414 5.7136-15.663 8.4967-1.8644.98933-5.05 2.121-5.6706 4.3221-.63962 2.2634.23493 5.1765.43113 7.4749.45446 5.3288.8882 10.673 1.4574 15.989 1.7777 16.609 3.3091 33.312 4.5616 49.966.42599 5.6662 1.0492 11.335 1.6269 16.988.13093 1.2816.0698 2.6531.41135 3.9048.13944.50962.41166 1.1217 1.0482 1.1217.87553 0 1.7026-.81446 2.3014-1.3416 1.4868-1.3066 2.8384-2.7631 4.2058-4.1847 5.3054-5.5213 10.816-10.858 16.267-16.241 12.854-12.696 25.452-25.642 38.275-38.369 5.8724-5.8286 12.317-11.462 17.255-18.09 4.057-5.4438 6.9612-11.682 8.5121-18.238 2.976-12.584.25165-25.555-.87303-38.224-.26706-2.9879-.46994-6.0159-.90898-8.9838-.20027-1.3566-.69845-2.793-2.4034-2.5383m-238.25 43.977c-3.2595.35977-6.3163 2.171-8.9845 3.9098-5.232 3.4051-9.9089 7.5073-14.448 11.729-17.003 15.814-32.142 33.674-46.734 51.587-5.3166 6.5256-10.573 13.099-15.746 19.734-1.1899 1.5265-2.5903 3.028-3.5489 4.7068-.28755.50469-.86403 1.8013.15947 1.9212.68379.08 1.3989-.38725 1.9412-.72948 1.37-.86193 2.6417-1.9012 3.9158-2.8905 4.9926-3.8774 9.981-7.7572 14.933-11.682 21.009-16.656 42.157-34.039 59.638-54.28 4.462-5.1665 9.0557-10.9 11.609-17.238.83812-2.0811 2.1249-6.1558-1.2343-6.7479-.49456-.0874-1.0035-.075-1.5009-.0201m46.221 4.2196c-4.7079.27732-9.2341 2.838-13.095 5.2739-7.9713 5.0266-15.327 11.29-22.083 17.768-24.627 23.614-46.728 49.454-68.315 75.691-7.6588 9.3087-15.159 18.742-22.58 28.231-1.7722 2.2659-3.8465 4.5119-5.301 6.9852-.44051.74947-1.0588 2.3783.34998 2.5533 1.0448.12739 2.1012-.66709 2.8945-1.2192 1.8503-1.2866 3.603-2.7156 5.3915-4.0822 7.418-5.6711 14.803-11.4 22.083-17.236 17.152-13.753 34.078-27.758 50.357-42.488 12.463-11.277 24.665-22.954 35.622-35.646 6.714-7.7772 13.498-16.094 17.554-25.538 1.212-2.823 3.6567-9.1912-1.1023-10.19-.58217-.12246-1.183-.13746-1.7756-.10246m5.1278 46.8c-2.8045.0224-5.5984 1.514-7.9518 2.858-5.4894 3.1329-10.23 7.4449-14.893 11.61-17.961 16.047-33.375 35.036-48.575 53.518-5.1976 6.3207-10.244 12.754-15.313 19.172-1.1336 1.4365-2.4584 2.8605-3.3271 4.4719-.28088.51969-.79086 1.7638.20932 1.8937.72306.0949 1.4826-.4197 2.048-.78947 1.3417-.87186 2.5762-1.9136 3.8452-2.8805 5.0069-3.8174 9.9695-7.6897 14.889-11.612 11.123-8.8664 22.029-17.968 32.614-27.439 9.0372-8.0845 17.976-16.421 25.852-25.605 4.742-5.5312 9.6182-11.277 12.507-17.985 1.0777-2.5033 2.4764-7.25-1.9053-7.2126z" fill="#020202"/></g></svg>
